PathFileType	4	(X/Y/Z)	/Users/itak/Documents/Research/Walk-IL/dataset/trc/00453_00167.trc
DataRate	CameraRate	NumFrames	NumMarkers	Units	OrigDataRate	OrigDataStartFrame	OrigNumFrames
100.000000	100.000000	4	53	mm	100.000000	402	536
Frame#	Time	RPSI			LPSI			L3			STRN			T10			C7			CLAV			RBAK			LBAK			LSHO			LUPA			LAEL			LAOL			LWTS			LWPS			LFRA			LIFD			LHPS			LHTS			RSHO			RUPA			RAEL			RAOL			RWTS			RWPS			RFRA			RIFD			RHTS			RHPS			RBHD			LFHD			RFHD			LBHD			LHIP			RHIP			RASI			LASI			LKNE			LTHI			LANK			LTIP			LTOE			LMT1			LMT5			LHEE			RKNE			RTHI			RANK			RTIP			RTOE			RMT1			RMT5			RHEE			
		X1	Y1	Z1	X2	Y2	Z2	X3	Y3	Z3	X4	Y4	Z4	X5	Y5	Z5	X6	Y6	Z6	X7	Y7	Z7	X8	Y8	Z8	X9	Y9	Z9	X10	Y10	Z10	X11	Y11	Z11	X12	Y12	Z12	X13	Y13	Z13	X14	Y14	Z14	X15	Y15	Z15	X16	Y16	Z16	X17	Y17	Z17	X18	Y18	Z18	X19	Y19	Z19	X20	Y20	Z20	X21	Y21	Z21	X22	Y22	Z22	X23	Y23	Z23	X24	Y24	Z24	X25	Y25	Z25	X26	Y26	Z26	X27	Y27	Z27	X28	Y28	Z28	X29	Y29	Z29	X30	Y30	Z30	X31	Y31	Z31	X32	Y32	Z32	X33	Y33	Z33	X34	Y34	Z34	X35	Y35	Z35	X36	Y36	Z36	X37	Y37	Z37	X38	Y38	Z38	X39	Y39	Z39	X40	Y40	Z40	X41	Y41	Z41	X42	Y42	Z42	X43	Y43	Z43	X44	Y44	Z44	X45	Y45	Z45	X46	Y46	Z46	X47	Y47	Z47	X48	Y48	Z48	X49	Y49	Z49	X50	Y50	Z50	X51	Y51	Z51	X52	Y52	Z52	X53	Y53	Z53	

403	4.02	1004.525695800781	923.6959228515625	1124.622802734375	1088.670043945312	931.480224609375	1010.815063476562	1040.530639648438	1031.600708007812	1100.031494140625	1265.080078125	1236.286376953125	1258.101318359375	1023.848449707031	1154.855346679688	1104.836791992188	1053.03662109375	1424.294921875	1167.475341796875	1228.53564453125	1349.00634765625	1239.37646484375	961.6616821289062	1293.629028320312	1210.130859375	1073.42578125	1380.95263671875	1064.8017578125	1201.427490234375	1412.116333007812	1041.139892578125	1232.64794921875	1309.426025390625	934.7120971679688	1261.939697265625	1106.642944335938	874.9821166992188	1162.912841796875	1079.976440429688	897.4860229492188	1351.782592773438	946.7992553710938	970.9046020507812	1341.828002929688	904.0856323242188	910.6818237304688	1302.334106445312	1025.568969726562	884.8170776367188	1420.628540039062	816.6826171875	1033.569702148438	1385.569458007812	839.0511474609375	942.0049438476562	1406.574584960938	887.1865234375	992.3034057617188	1034.364135742188	1385.6591796875	1337.434814453125	984.614013671875	1320.26513671875	1391.072143554688	980.0093383789062	1044.009887695312	1457.638549804688	959.7695922851562	1005.350708007812	1405.251342773438	1172.707763671875	936.3304443359375	1500.44921875	1108.3642578125	881.1567993164062	1524.932250976562	1005.872985839844	994.906494140625	1478.219604492188	1258.152221679688	811.5280151367188	1547.893188476562	1231.2197265625	866.3062133789062	1544.85400390625	1169.069946289062	823.0008544921875	1553.721313476562	1060.466552734375	1619.186279296875	1269.759399414062	1251.792114257812	1655.48193359375	1200.386474609375	1186.741088867188	1655.015502929688	1313.020141601562	1134.295532226562	1622.292602539062	1108.282958984375	1277.492309570312	848.4412841796875	997.5241088867188	1029.564331054688	826.5203247070312	1307.841918945312	1141.491821289062	883.352294921875	1311.960205078125	1303.227294921875	891.8326416015625	1116.9521484375	1366.17333984375	433.4770812988281	1045.267578125	1368.697631835938	593.9334716796875	1036.536254882812	1241.597778320312	24.13432693481445	949.5452880859375	1339.422973632812	280.9126892089844	1006.349060058594	1390.986938476562	31.45952415466309	1137.953002929688	1313.9306640625	42.53450012207031	1119.44287109375	1372.791748046875	27.28473854064941	1022.638061523438	1167.8798828125	25.86034202575684	965.7319946289062	1148.3046875	449.9299926757812	1341.097778320312	1099.246826171875	706.8611450195312	1369.570556640625	1076.6171875	31.29455947875977	1268.321899414062	1133.481567382812	302.6286010742188	1337.071044921875	1286.1298828125	34.91000366210938	1342.732177734375	1250.168823242188	44.57009887695312	1282.058715820312	1174.732666015625	31.57283020019531	1363.610229492188	1047.32373046875	23.33083343505859	1194.485717773438	
404	4.03	1005.910827636719	923.798828125	1125.154296875	1089.620361328125	931.3272705078125	1011.006774902344	1042.285522460938	1031.466552734375	1100.323974609375	1267.724853515625	1235.481201171875	1257.831787109375	1026.001342773438	1154.948608398438	1104.923095703125	1056.119995117188	1424.22021484375	1167.818481445312	1231.428588867188	1348.32470703125	1239.299194335938	964.39990234375	1293.763305664062	1210.380615234375	1076.066162109375	1380.929565429688	1064.86474609375	1204.227905273438	1411.779296875	1041.08837890625	1235.29296875	1308.826049804688	934.8348999023438	1264.494018554688	1105.916870117188	874.722412109375	1165.432495117188	1079.772583007812	897.1567993164062	1352.474243164062	943.4659423828125	967.7459106445312	1341.51953125	901.7319946289062	907.029541015625	1303.881591796875	1024.206787109375	883.277587890625	1419.870361328125	811.4759521484375	1028.051391601562	1384.46826171875	835.6371459960938	937.093994140625	1406.57568359375	882.715576171875	987.8853759765625	1037.561401367188	1385.100463867188	1337.910278320312	987.7254638671875	1319.453979492188	1391.245849609375	982.018798828125	1042.406860351562	1455.8857421875	962.0838012695312	1004.754943847656	1402.565063476562	1173.223754882812	932.3801879882812	1498.999267578125	1108.009399414062	877.6146850585938	1522.2060546875	1007.205078125	992.7975463867188	1476.060546875	1256.605712890625	806.2237548828125	1546.4736328125	1230.408325195312	861.4208984375	1543.593994140625	1167.623413085938	818.5829467773438	1551.192016601562	1063.957763671875	1618.901245117188	1270.158813476562	1255.372802734375	1655.00732421875	1200.957153320312	1190.279174804688	1654.478759765625	1313.55322265625	1137.874633789062	1622.15478515625	1108.760375976562	1277.934204101562	847.7036743164062	996.7760620117188	1031.418701171875	826.6289672851562	1308.2998046875	1143.42333984375	883.3342895507812	1312.429321289062	1304.634765625	891.0582885742188	1116.08642578125	1364.755981445312	432.4823913574219	1044.43896484375	1367.8525390625	592.7216796875	1035.193359375	1240.829956054688	23.14088821411133	950.0770874023438	1338.11376953125	279.8443908691406	1006.037902832031	1391.2724609375	31.33369064331055	1138.01904296875	1314.012084960938	42.24247360229492	1119.815551757812	1372.673461914062	27.39695739746094	1022.638244628906	1167.1611328125	23.90182304382324	966.7944946289062	1149.25830078125	449.7145080566406	1341.018676757812	1101.151245117188	706.614990234375	1370.230834960938	1076.583129882812	31.27902603149414	1268.300903320312	1133.965576171875	302.3074951171875	1336.8212890625	1286.106811523438	34.92618942260742	1342.571655273438	1250.146606445312	44.51795959472656	1281.96630859375	1174.738891601562	31.58963203430176	1363.59228515625	1047.287353515625	23.12868499755859	1194.361328125	
405	4.04	1007.199584960938	923.9846801757812	1125.7470703125	1090.4287109375	931.2008056640625	1011.225280761719	1043.970825195312	1031.4130859375	1100.634399414062	1270.3125	1234.785278320312	1257.3818359375	1027.999389648438	1155.091064453125	1104.9609375	1059.09814453125	1424.20263671875	1168.034545898438	1234.237060546875	1347.75	1239.053955078125	967.0345458984375	1293.978515625	1210.565307617188	1078.574462890625	1380.97509765625	1064.787475585938	1206.897827148438	1411.526000976562	1040.882446289062	1237.906494140625	1308.276123046875	934.8601684570312	1267.135498046875	1105.165649414062	874.5797729492188	1168.061767578125	1079.53662109375	896.9148559570312	1353.192749023438	940.1832885742188	964.7161865234375	1341.32373046875	899.4658813476562	903.5157470703125	1305.518920898438	1022.860717773438	881.8699951171875	1419.069702148438	806.3599853515625	1022.671142578125	1383.413940429688	832.325927734375	932.3377075195312	1406.572631835938	878.3120727539062	983.6166381835938	1040.710815429688	1384.6376953125	1338.248291015625	990.8096313476562	1318.789184570312	1391.342041015625	983.960693359375	1040.908935546875	1454.047119140625	964.1394653320312	1004.399963378906	1399.777099609375	1173.41064453125	928.0065307617188	1497.214111328125	1107.20849609375	873.86279296875	1519.156372070312	1008.355285644531	990.734619140625	1473.744018554688	1254.2978515625	800.1465454101562	1544.443969726562	1229.064208984375	855.8866577148438	1541.846069335938	1165.544311523438	813.765869140625	1548.215087890625	1067.399780273438	1618.6865234375	1270.444213867188	1258.892822265625	1654.568481445312	1201.3896484375	1193.759399414062	1653.966186523438	1313.943359375	1141.37109375	1622.084716796875	1109.11376953125	1278.265869140625	847.0234375	995.9658813476562	1033.304565429688	826.81103515625	1308.797729492188	1145.382934570312	883.3970947265625	1312.93408203125	1305.979248046875	890.3739624023438	1115.10546875	1363.3173828125	431.5627746582031	1043.6767578125	1366.938720703125	591.5791625976562	1033.890502929688	1240.174438476562	22.25813865661621	950.4893798828125	1336.84130859375	278.842529296875	1005.770690917969	1391.481323242188	31.25829124450684	1138.065795898438	1314.041748046875	41.95493698120117	1120.14404296875	1372.566528320312	27.51552200317383	1022.651123046875	1166.544067382812	22.08256340026855	967.6484985351562	1150.17333984375	449.5172119140625	1340.864990234375	1103.08740234375	706.4425048828125	1370.931274414062	1076.547119140625	31.27453994750977	1268.283813476562	1134.4248046875	302.0195922851562	1336.533203125	1286.08203125	34.93066024780273	1342.417846679688	1250.126708984375	44.46555709838867	1281.87353515625	1174.756225585938	31.60803604125977	1363.576049804688	1047.2294921875	22.93272590637207	1194.248291015625	
406	4.05	1008.408813476562	924.2529296875	1126.377197265625	1091.128295898438	931.1141357421875	1011.462890625	1045.59619140625	1031.448364257812	1100.94580078125	1272.839111328125	1234.204711914062	1256.764526367188	1029.85400390625	1155.285034179688	1104.951904296875	1061.968627929688	1424.250122070312	1168.123901367188	1236.963256835938	1347.288940429688	1238.653930664062	969.5609741210938	1294.280029296875	1210.680053710938	1080.961181640625	1381.093627929688	1064.576416015625	1209.439575195312	1411.364868164062	1040.533935546875	1240.490356445312	1307.788940429688	934.7937622070312	1269.839111328125	1104.406616210938	874.549560546875	1170.762939453125	1079.302612304688	896.7547607421875	1353.932250976562	936.96728515625	961.8053588867188	1341.21533203125	897.3014526367188	900.12939453125	1307.220092773438	1021.54638671875	880.5864868164062	1418.228515625	801.35400390625	1017.409729003906	1382.392822265625	829.134765625	927.720703125	1406.557006835938	873.9947509765625	979.4781494140625	1043.805786132812	1384.282104492188	1338.447875976562	993.8613891601562	1318.282348632812	1391.363647460938	985.8512573242188	1039.548706054688	1452.16015625	965.9097900390625	1004.294860839844	1396.969970703125	1173.285400390625	923.270751953125	1495.087036132812	1105.99951171875	869.9722900390625	1515.815307617188	1009.344665527344	988.7615966796875	1471.310668945312	1251.264526367188	793.38232421875	1541.746459960938	1227.222900390625	849.7752685546875	1539.564697265625	1162.88720703125	808.63427734375	1544.78955078125	1070.785400390625	1618.552124023438	1270.624877929688	1262.34375	1654.17822265625	1201.691772460938	1197.172607421875	1653.486206054688	1314.1982421875	1144.778930664062	1622.095947265625	1109.350830078125	1278.527954101562	846.419921875	995.1200561523438	1035.212768554688	827.0615234375	1309.319091796875	1147.362060546875	883.5343627929688	1313.458251953125	1307.268310546875	889.780029296875	1114.048217773438	1361.866455078125	430.7236022949219	1042.95703125	1365.979736328125	590.5154418945312	1032.64306640625	1239.625610351562	21.48742485046387	950.7779541015625	1335.607666015625	277.9141845703125	1005.51953125	1391.610473632812	31.23110961914062	1138.088500976562	1314.012817382812	41.67961120605469	1120.412719726562	1372.46240234375	27.63251304626465	1022.665588378906	1166.017333984375	20.43610572814941	968.2766723632812	1151.034790039062	449.3381042480469	1340.631958007812	1105.046020507812	706.3385009765625	1371.655517578125	1076.510009765625	31.27958679199219	1268.267456054688	1134.85791015625	301.7791748046875	1336.2138671875	1286.056884765625	34.92652893066406	1342.276123046875	1250.107788085938	44.41073226928711	1281.778442382812	1174.789672851562	31.63943099975586	1363.562744140625	1047.15185546875	22.73893165588379	1194.151000976562	
